<svg width="20" height="20" viewBox="0 0 20 20" fill="none" xmlns="http://www.w3.org/2000/svg">
<g id="File-Files">
<mask id="mask0_359_574" style="mask-type:alpha" maskUnits="userSpaceOnUse" x="2" y="1" width="16" height="18">
<path id="icon" fill-rule="evenodd" clip-rule="evenodd" d="M7.18901 4.125H9.37546C10.1488 4.125 10.8895 4.43656 11.4304 4.98932L13.8049 7.41613C14.3306 7.95339 14.625 8.67515 14.625 9.42681V14.061C15.0619 13.9065 15.375 13.4898 15.375 13V6.92681C15.375 6.63269 15.2598 6.35026 15.0541 6.14002L12.6796 3.71321C12.4679 3.49691 12.1781 3.375 11.8755 3.375H8.25C7.76017 3.375 7.34345 3.68805 7.18901 4.125ZM14.6035 15.8535C14.4293 17.2745 13.2181 18.375 11.75 18.375H5.75C4.16218 18.375 2.875 17.0878 2.875 15.5V7C2.875 5.53186 3.97546 4.32074 5.39651 4.14651C5.57074 2.72546 6.78186 1.625 8.25 1.625H11.8755C12.6488 1.625 13.3895 1.93656 13.9304 2.48932L16.3049 4.91613C16.8306 5.45339 17.125 6.17515 17.125 6.92681V13C17.125 14.4681 16.0245 15.6793 14.6035 15.8535ZM4.625 7C4.625 6.37868 5.12868 5.875 5.75 5.875H9.37546C9.67807 5.875 9.96793 5.99691 10.1796 6.21321L12.5541 8.64002C12.7598 8.85026 12.875 9.13269 12.875 9.42681V15.5C12.875 16.1213 12.3713 16.625 11.75 16.625H5.75C5.12868 16.625 4.625 16.1213 4.625 15.5V7ZM6 11.875C6 11.3918 6.39175 11 6.875 11H10.625C11.1082 11 11.5 11.3918 11.5 11.875C11.5 12.3582 11.1082 12.75 10.625 12.75H6.875C6.39175 12.75 6 12.3582 6 11.875ZM6.875 13.5C6.39175 13.5 6 13.8918 6 14.375C6 14.8582 6.39175 15.25 6.875 15.25H10.625C11.1082 15.25 11.5 14.8582 11.5 14.375C11.5 13.8918 11.1082 13.5 10.625 13.5H6.875Z" fill="black"/>
</mask>
<g mask="url(#mask0_359_574)">
<path id="color" d="M20 0H0V20H20V0Z" fill="black"/>
</g>
</g>
</svg>
