<svg width="40" height="40" viewBox="0 0 40 40" fill="none" xmlns="http://www.w3.org/2000/svg">
<g clip-path="url(#clip0_396_17070)">
<path d="M18.7896 5.94755H21.1054C21.3685 5.94755 21.579 5.73702 21.579 5.47386C21.579 5.21071 21.3685 5.00018 21.1054 5.00018H18.7896V5.94755ZM18.7896 8.15807H21.158C21.4738 8.15807 21.6843 7.94755 21.6843 7.63176C21.6843 7.31597 21.4738 7.10544 21.158 7.10544H18.7896V8.15807ZM22.5264 6.47386C22.8422 6.78965 23.0527 7.21071 23.0527 7.68439C23.0527 8.63176 22.3159 9.3686 21.3685 9.3686H17.5264V3.84229H21.3159C22.2106 3.84229 22.9475 4.57913 22.9475 5.47386C22.8948 5.84228 22.7369 6.21071 22.5264 6.47386ZM23.4212 15.9475H22.0001L21.579 15.0002H18.4738L18.0527 15.9475H16.6317L19.3685 10.4212H20.6317L23.4212 15.9475ZM20.0001 11.8423L19.0527 13.8423H20.9475L20.0001 11.8423ZM21.8948 17.1581H23.4738L20.6843 20.737V22.6844H19.3685V20.737L16.5791 17.1581H18.158L20.0527 19.6844L21.8948 17.1581ZM29.2106 17.1581V18.3686H25.5264V19.316H29.1054V20.5265H25.5264V21.5791H29.2106V22.7897H24.2106V17.1581H29.2106ZM33.2633 20.5791H32.2633V22.6844H30.9475V17.1581H34.3159C35.2633 17.1581 36.0001 17.9475 36.0001 18.8949C36.0001 19.6844 35.4738 20.316 34.7896 20.5265L36.4212 22.6844H34.8422L33.2633 20.5791ZM34.2106 18.316H32.3159V19.3686H34.2106C34.5264 19.3686 34.7369 19.1054 34.7369 18.8423C34.7369 18.5791 34.4738 18.316 34.2106 18.316ZM17.158 22.6844H15.7369L15.3159 21.737H12.2106L11.7896 22.6844H10.3685L13.158 17.1581H14.4212L17.158 22.6844ZM13.7369 18.5791L12.7896 20.5791H14.7369L13.7369 18.5791ZM5.36852 19.2633H7.68431C7.94747 19.2633 8.158 19.0528 8.158 18.7897C8.158 18.5265 7.94747 18.316 7.68431 18.316H5.36852V19.2633ZM5.36852 21.4739H7.73694C8.05273 21.4739 8.26326 21.2633 8.26326 20.9475C8.26326 20.6318 8.05273 20.4212 7.73694 20.4212H5.36852V21.4739ZM9.10537 19.7897C9.42116 20.1054 9.63168 20.5265 9.63168 21.0002C9.63168 21.9475 8.89484 22.6844 7.94747 22.6844H4.05273V17.1581H7.84221C8.73694 17.1581 9.47379 17.8949 9.47379 18.7897C9.47379 19.1581 9.31589 19.5265 9.10537 19.7897ZM22.5264 23.8423V25.0528H18.8422V26.0002H22.4212V27.2107H18.8422V28.2633H22.5264V29.4739H17.5264V23.8423H22.5264ZM21.579 32.4212C21.579 32.1054 21.3685 31.8949 21.0527 31.8949H18.7896V32.9475H21.0527C21.3685 32.9475 21.579 32.737 21.579 32.4212ZM17.4738 36.2633V30.737H21.158C22.1054 30.737 22.8422 31.5265 22.8422 32.4739C22.8422 33.2107 22.4212 33.7897 21.7896 34.0528L23.4738 36.2633H21.8948L20.3159 34.1581H18.7896V36.2633H17.4738Z" fill="#10384F"/>
<path d="M39.9475 18.7368C39.3159 8.31579 30.6317 0 20.0001 0C9.36852 0 0.684313 8.31579 0.0527344 18.7368C0.0527344 19.1579 0.105366 19.579 0.157998 20C0.57905 23.4737 1.89484 26.6842 3.89484 29.3684C7.52642 34.3158 13.3685 37.5263 20.0001 37.5263C10.7369 37.5263 3.158 30.3158 2.52642 21.2632C2.47379 20.8421 2.47379 20.4211 2.47379 20C2.47379 19.579 2.47379 19.1579 2.52642 18.7368C3.158 9.68421 10.7369 2.47368 20.0001 2.47368C26.6317 2.47368 32.4738 5.68421 36.1054 10.6316C38.1054 13.3158 39.4212 16.5263 39.8422 20C39.8948 20.4211 39.9475 20.8421 39.9475 21.2105C39.9475 20.7895 40.0001 20.3684 40.0001 19.9474C40.0001 19.579 40.0001 19.1579 39.9475 18.7368Z" fill="#89D329"/>
<path d="M0.0526316 21.2631C0.684211 31.6842 9.36842 40 20 40C30.6316 40 39.3158 31.6842 39.9474 21.2631C39.9474 20.8421 39.8947 20.421 39.8421 20C39.4211 16.5263 38.1053 13.3157 36.1053 10.6315C32.4737 5.68416 26.6316 2.47363 20 2.47363C29.2632 2.47363 36.8421 9.68416 37.4737 18.7368C37.5263 19.1578 37.5263 19.5789 37.5263 20C37.5263 20.421 37.5263 20.8421 37.4737 21.2631C36.8421 30.3684 29.2632 37.5263 20 37.5263C13.3684 37.5263 7.52632 34.3157 3.89474 29.3684C1.89474 26.6842 0.578947 23.4736 0.157895 20C0.105263 19.5789 0.0526316 19.1578 0.0526316 18.7894C0.0526316 19.2105 0 19.6315 0 20.0526C0 20.421 3.92136e-09 20.8421 0.0526316 21.2631Z" fill="#00BCFF"/>
</g>
<defs>
<clipPath id="clip0_396_17070">
<rect width="40" height="40" fill="white"/>
</clipPath>
</defs>
</svg>
