<svg width="20" height="20" viewBox="0 0 20 20" fill="none" xmlns="http://www.w3.org/2000/svg">
<mask id="mask0_939_63567" style="mask-type:alpha" maskUnits="userSpaceOnUse" x="9" y="9" width="11" height="10">
<path fill-rule="evenodd" clip-rule="evenodd" d="M13.6866 9.18112C13.5629 9.10687 13.4131 9.08971 13.2757 9.13404C12.6267 9.34356 12.0301 9.68964 11.526 10.149C11.4198 10.2457 11.3604 10.3834 11.3628 10.527L11.3808 11.5931C11.333 11.6689 11.2881 11.7465 11.2462 11.8258L10.3129 12.3427C10.1871 12.4124 10.0974 12.5329 10.0667 12.6734C9.92089 13.3406 9.92246 14.0317 10.0713 14.6983C10.1024 14.8376 10.1916 14.9569 10.3163 15.0263L11.2461 15.5433C11.2882 15.6232 11.3331 15.7015 11.3808 15.7782L11.3628 16.8424C11.3604 16.986 11.4198 17.1237 11.5259 17.2204C12.0313 17.681 12.6308 18.0262 13.2828 18.2322C13.4192 18.2753 13.5675 18.2579 13.6902 18.1845L14.6041 17.6375C14.6925 17.6404 14.781 17.6404 14.8693 17.6376L15.7872 18.1883C15.911 18.2625 16.0608 18.2797 16.1981 18.2354C16.8471 18.0258 17.4438 17.6798 17.9479 17.2204C18.054 17.1237 18.1134 16.986 18.111 16.8424L18.0931 15.7763C18.1408 15.7005 18.1857 15.6229 18.2276 15.5436L19.1609 15.0267C19.2867 14.957 19.3764 14.8365 19.4071 14.696C19.5529 14.0288 19.5514 13.3377 19.4025 12.6711C19.3714 12.5318 19.2823 12.4125 19.1575 12.3431L18.2278 11.8262C18.1859 11.7468 18.1409 11.669 18.0931 11.5931L18.111 10.527C18.1134 10.3834 18.054 10.2457 17.9479 10.149C17.4425 9.68844 16.843 9.3432 16.191 9.1372C16.0546 9.09412 15.9063 9.11149 15.7836 9.18493L14.8697 9.73186C14.7813 9.72902 14.6929 9.72901 14.6045 9.73185L13.6866 9.18112ZM12.3832 11.7314L12.3666 10.7446C12.6702 10.4987 13.0101 10.3015 13.3742 10.1599L14.2206 10.6677C14.3087 10.7206 14.411 10.745 14.5135 10.7377C14.6623 10.7271 14.8116 10.7271 14.9603 10.7377C15.0626 10.745 15.1647 10.7207 15.2527 10.668L16.0967 10.1629C16.4621 10.3025 16.8031 10.4988 17.1072 10.7447L17.0906 11.7314C17.0888 11.8367 17.1203 11.9398 17.1806 12.0261C17.2633 12.1444 17.3356 12.2696 17.3969 12.4003C17.4414 12.4953 17.5148 12.574 17.6066 12.625L18.4679 13.1038C18.5301 13.4886 18.5311 13.8807 18.4708 14.2658L17.6073 14.744C17.5152 14.795 17.4416 14.8738 17.3969 14.9691C17.3356 15.0998 17.2633 15.225 17.1806 15.3433C17.1203 15.4296 17.0888 15.5327 17.0906 15.638L17.1072 16.6248C16.8036 16.8707 16.4637 17.0679 16.0996 17.2095L15.2532 16.7017C15.1651 16.6488 15.0628 16.6244 14.9603 16.6317C14.8116 16.6423 14.6623 16.6423 14.5135 16.6317C14.4112 16.6244 14.3091 16.6487 14.2211 16.7014L13.3771 17.2065C13.0118 17.0669 12.6708 16.8706 12.3666 16.6247L12.3832 15.6422C12.385 15.5386 12.3545 15.4371 12.2961 15.3517C12.2129 15.2298 12.1394 15.1015 12.0764 14.968C12.0318 14.8734 11.9586 14.7952 11.8672 14.7444L11.0059 14.2656C10.9437 13.8808 10.9427 13.4887 11.003 13.1036L11.8665 12.6254C11.9586 12.5744 12.0323 12.4956 12.077 12.4003C12.1382 12.2696 12.2106 12.1444 12.2932 12.0261C12.3535 11.9398 12.385 11.8367 12.3832 11.7314ZM13.2633 13.6847C13.2633 12.8708 13.9231 12.211 14.737 12.211C15.5508 12.211 16.2106 12.8708 16.2106 13.6847C16.2106 14.4986 15.5508 15.1584 14.737 15.1584C13.9231 15.1584 13.2633 14.4986 13.2633 13.6847ZM14.737 11.211C13.3708 11.211 12.2633 12.3185 12.2633 13.6847C12.2633 15.0509 13.3708 16.1584 14.737 16.1584C16.1031 16.1584 17.2106 15.0509 17.2106 13.6847C17.2106 12.3185 16.1031 11.211 14.737 11.211Z" fill="black"/>
</mask>
<g mask="url(#mask0_939_63567)">
<path d="M19.9999 8.42139H9.47363V18.9477H19.9999V8.42139Z" fill="#10384F"/>
</g>
<path fill-rule="evenodd" clip-rule="evenodd" d="M15.7206 8.28331C16.2793 8.19218 16.6645 7.66264 16.5062 7.11908C16.1391 5.85843 15.4807 4.69626 14.5785 3.72926C13.4424 2.51143 11.9706 1.65785 10.3493 1.27648C8.72805 0.895102 7.03009 1.00305 5.47017 1.58668C3.91025 2.17031 2.55842 3.20341 1.58564 4.55532C0.612864 5.90724 0.0628186 7.51726 0.00506582 9.18179C-0.052687 10.8463 0.384446 12.4906 1.26119 13.9067C2.13793 15.3228 3.4149 16.4471 4.93062 17.1374C6.13415 17.6856 7.44528 17.9406 8.75726 17.8881C9.32294 17.8655 9.70267 17.3321 9.61154 16.7733C9.52041 16.2146 8.99205 15.8442 8.42591 15.8447C7.51714 15.8454 6.6146 15.6516 5.7804 15.2716C4.63369 14.7494 3.66761 13.8988 3.00432 12.8274C2.34103 11.7561 2.01032 10.5122 2.05401 9.25288C2.0977 7.99359 2.51384 6.77555 3.24978 5.75277C3.98573 4.72999 5.00844 3.94841 6.18859 3.50687C7.36873 3.06533 8.65331 2.98366 9.87987 3.27218C11.1064 3.56071 12.2199 4.20648 13.0794 5.12782C13.7048 5.79808 14.1753 6.59228 14.4633 7.45417C14.6428 7.99111 15.1618 8.37443 15.7206 8.28331Z" fill="#10384F"/>
<path d="M8.42118 6.31592V9.58592C8.42118 9.85113 8.31582 10.1055 8.12829 10.293L6.31592 12.1054" stroke="#10384F" stroke-width="1.7" stroke-linecap="round"/>
</svg>
