<svg width="14" height="14" viewBox="0 0 14 14" fill="none" xmlns="http://www.w3.org/2000/svg">
<mask id="mask0_2378_43687" style="mask-type:alpha" maskUnits="userSpaceOnUse" x="1" y="1" width="12" height="12">
<path fill-rule="evenodd" clip-rule="evenodd" d="M7.875 2.1875C7.875 1.70425 7.48325 1.3125 7 1.3125C6.51675 1.3125 6.125 1.70425 6.125 2.1875V6.125H2.1875C1.70425 6.125 1.3125 6.51675 1.3125 7C1.3125 7.48325 1.70425 7.875 2.1875 7.875H6.125V11.8125C6.125 12.2957 6.51675 12.6875 7 12.6875C7.48325 12.6875 7.875 12.2957 7.875 11.8125V7.875H11.8125C12.2957 7.875 12.6875 7.48325 12.6875 7C12.6875 6.51675 12.2957 6.125 11.8125 6.125H7.875V2.1875Z" fill="black"/>
</mask>
<g mask="url(#mask0_2378_43687)">
<path d="M14 0H0V14H14V0Z" fill="#0091DF"/>
</g>
</svg>
