<svg width="24" height="24" viewBox="0 0 24 24" fill="none" xmlns="http://www.w3.org/2000/svg">
<mask id="mask0_1877_96597" style="mask-type:alpha" maskUnits="userSpaceOnUse" x="2" y="2" width="20" height="20">
<path fill-rule="evenodd" clip-rule="evenodd" d="M12 3.88208C7.51269 3.88208 3.875 7.51977 3.875 12.0071C3.875 16.4944 7.51269 20.1321 12 20.1321C16.4873 20.1321 20.125 16.4944 20.125 12.0071C20.125 7.51977 16.4873 3.88208 12 3.88208ZM2.125 12.0071C2.125 6.55327 6.54619 2.13208 12 2.13208C17.4538 2.13208 21.875 6.55327 21.875 12.0071C21.875 17.4609 17.4538 21.8821 12 21.8821C6.54619 21.8821 2.125 17.4609 2.125 12.0071ZM10.375 11.2571C10.375 10.7738 10.7668 10.3821 11.25 10.3821H12C12.4832 10.3821 12.875 10.7738 12.875 11.2571V15.6409C13.299 15.7016 13.625 16.0663 13.625 16.5071C13.625 16.9903 13.2332 17.3821 12.75 17.3821H12C11.5168 17.3821 11.125 16.9903 11.125 16.5071V12.1232C10.701 12.0626 10.375 11.6979 10.375 11.2571ZM11.75 6.98218C11.2668 6.98218 10.875 7.37393 10.875 7.85718C10.875 8.34043 11.2668 8.73218 11.75 8.73218H11.76C12.2432 8.73218 12.635 8.34043 12.635 7.85718C12.635 7.37393 12.2432 6.98218 11.76 6.98218H11.75Z" fill="black"/>
</mask>
<g mask="url(#mask0_1877_96597)">
<rect y="0.00708008" width="24" height="24" fill="#516E7F"/>
</g>
</svg>
