<svg width="24" height="24" viewBox="0 0 24 24" fill="none" xmlns="http://www.w3.org/2000/svg">
<g id="Chat-User">
<mask id="mask0_399_1934" style="mask-type:alpha" maskUnits="userSpaceOnUse" x="2" y="4" width="20" height="19">
<path id="icon" fill-rule="evenodd" clip-rule="evenodd" d="M2.125 7.25C2.125 5.66218 3.41218 4.375 5 4.375H19C20.5878 4.375 21.875 5.66218 21.875 7.25V16.75C21.875 18.3378 20.5878 19.625 19 19.625H8.2604C7.98487 19.625 7.71892 19.7261 7.51299 19.9092L5.24568 21.9245C4.03649 22.9994 2.125 22.141 2.125 20.5232V7.25ZM5 6.125C4.37868 6.125 3.875 6.62868 3.875 7.25V20.5232C3.875 20.561 3.88458 20.5803 3.89283 20.5924C3.90348 20.6081 3.92211 20.6252 3.94879 20.6372C3.97548 20.6492 4.00067 20.6517 4.01945 20.6493C4.034 20.6474 4.05479 20.6417 4.08305 20.6166L6.35035 18.6012C6.87662 18.1334 7.55627 17.875 8.2604 17.875H19C19.6213 17.875 20.125 17.3713 20.125 16.75V7.25C20.125 6.62868 19.6213 6.125 19 6.125H5Z" fill="black"/>
</mask>
<g mask="url(#mask0_399_1934)">
<path id="color" d="M24 0H0V24H24V0Z" fill="#516E7F"/>
</g>
</g>
</svg>
