<svg width="24" height="24" viewBox="0 0 24 24" fill="none" xmlns="http://www.w3.org/2000/svg">
<g id="Envelope-Simple">
<mask id="mask0_399_1926" style="mask-type:alpha" maskUnits="userSpaceOnUse" x="2" y="4" width="20" height="16">
<path id="icon" fill-rule="evenodd" clip-rule="evenodd" d="M5 4.375C3.41218 4.375 2.125 5.66218 2.125 7.25V16.75C2.125 18.3378 3.41218 19.625 5 19.625H19C20.5878 19.625 21.875 18.3378 21.875 16.75V7.25C21.875 5.66218 20.5878 4.375 19 4.375H5ZM3.875 7.25C3.875 6.62868 4.37868 6.125 5 6.125H19C19.6213 6.125 20.125 6.62868 20.125 7.25V16.75C20.125 17.3713 19.6213 17.875 19 17.875H5C4.37868 17.875 3.875 17.3713 3.875 16.75V7.25ZM7.50178 8.28317C7.10589 8.00605 6.5603 8.10233 6.28317 8.49822C6.00605 8.89411 6.10233 9.4397 6.49822 9.71683L10.3513 12.414C11.3412 13.1069 12.6588 13.1069 13.6487 12.414L17.5018 9.71683C17.8977 9.4397 17.994 8.89411 17.7168 8.49822C17.4397 8.10233 16.8941 8.00605 16.4982 8.28317L12.6451 10.9803C12.2578 11.2515 11.7422 11.2515 11.3549 10.9803L7.50178 8.28317Z" fill="black"/>
</mask>
<g mask="url(#mask0_399_1926)">
<path id="color" d="M24 0H0V24H24V0Z" fill="#516E7F"/>
</g>
</g>
</svg>
