<svg width="20" height="20" viewBox="0 0 20 20" fill="none" xmlns="http://www.w3.org/2000/svg">
<g id="Users-03">
<mask id="mask0_359_8858" style="mask-type:alpha" maskUnits="userSpaceOnUse" x="0" y="3" width="20" height="15">
<path id="icon" fill-rule="evenodd" clip-rule="evenodd" d="M5.08869 4.98841C4.78993 4.91181 4.47554 4.92182 4.18225 5.01726C3.88897 5.1127 3.6289 5.28964 3.43244 5.5274C3.23598 5.76515 3.11124 6.05391 3.07279 6.35993C3.03434 6.66595 3.08378 6.97659 3.21532 7.25555C3.34686 7.53452 3.55507 7.77029 3.81563 7.93532C4.07619 8.10035 4.37834 8.18781 4.68676 8.1875C5.17001 8.18701 5.56216 8.57836 5.56265 9.06161C5.56311 9.51319 5.2214 9.88521 4.78229 9.93244C4.75069 9.93584 4.7186 9.93756 4.68609 9.93751C4.0945 9.93652 3.51086 10.0738 2.98172 10.3383C2.45259 10.6029 1.99259 10.9875 1.63843 11.4613C1.34913 11.8484 0.800808 11.9277 0.413724 11.6384C0.0266405 11.3491 -0.052627 10.8008 0.236675 10.4137C0.744109 9.73474 1.40025 9.1813 2.15455 8.79563C1.945 8.55818 1.76888 8.29123 1.63246 8.00192C1.35926 7.42253 1.25659 6.77735 1.33644 6.14178C1.41629 5.5062 1.67537 4.90647 2.08341 4.41267C2.49145 3.91887 3.03159 3.55139 3.64072 3.35316C4.24985 3.15493 4.90281 3.13415 5.52331 3.29324C6.14382 3.45233 6.70623 3.78473 7.14484 4.25158C7.58346 4.71844 7.88015 5.30047 8.00026 5.92969C8.09087 6.40436 7.77952 6.86262 7.30484 6.95323C6.83016 7.04384 6.3719 6.73249 6.28129 6.25781C6.22346 5.95486 6.08061 5.67462 5.86943 5.44984C5.65824 5.22505 5.38745 5.06501 5.08869 4.98841ZM7.75005 10.9375C7.75005 9.69486 8.75741 8.6875 10.0001 8.6875C11.2427 8.6875 12.2501 9.69486 12.2501 10.9375C12.2501 12.1801 11.2427 13.1875 10.0001 13.1875C8.75741 13.1875 7.75005 12.1801 7.75005 10.9375ZM10.0001 6.9375C7.79091 6.9375 6.00005 8.72836 6.00005 10.9375C6.00005 12.0914 6.48866 13.1312 7.27027 13.8613C7.13902 13.93 7.01011 14.0039 6.88385 14.0827C5.94924 14.6665 5.19736 15.5009 4.71386 16.4911C4.50182 16.9254 4.68196 17.4493 5.1162 17.6613C5.55045 17.8733 6.07437 17.6932 6.28641 17.259C6.62607 16.5633 7.15428 15.9771 7.81087 15.567C8.46745 15.157 9.22601 14.9395 10.0001 14.9395C10.7743 14.9395 11.5328 15.157 12.1894 15.567C12.846 15.9771 13.3742 16.5633 13.7139 17.259C13.9259 17.6932 14.4498 17.8733 14.8841 17.6613C15.3183 17.4493 15.4984 16.9254 15.2864 16.4911C14.8029 15.5009 14.051 14.6665 13.1164 14.0827C12.9901 14.0039 12.8612 13.93 12.7299 13.8612C13.5115 13.1312 14.0001 12.0914 14.0001 10.9375C14.0001 8.72836 12.2092 6.9375 10.0001 6.9375ZM15.314 9.93751C15.9056 9.93652 16.4892 10.0738 17.0184 10.3383C17.5475 10.6029 18.0075 10.9875 18.3617 11.4613C18.651 11.8484 19.1993 11.9277 19.5864 11.6384C19.9735 11.3491 20.0527 10.8008 19.7634 10.4137C19.256 9.73474 18.5999 9.1813 17.8456 8.79563C18.0551 8.55818 18.2312 8.29123 18.3677 8.00192C18.6409 7.42253 18.7435 6.77735 18.6637 6.14178C18.5838 5.5062 18.3247 4.90647 17.9167 4.41267C17.5087 3.91887 16.9685 3.55139 16.3594 3.35316C15.7503 3.15493 15.0973 3.13415 14.4768 3.29324C13.8563 3.45233 13.2939 3.78473 12.8553 4.25158C12.4167 4.71844 12.12 5.30047 11.9999 5.92969C11.9093 6.40436 12.2206 6.86262 12.6953 6.95323C13.17 7.04384 13.6282 6.73249 13.7188 6.25781C13.7767 5.95486 13.9195 5.67462 14.1307 5.44984C14.3419 5.22505 14.6127 5.06501 14.9114 4.98841C15.2102 4.91181 15.5246 4.92182 15.8179 5.01726C16.1111 5.1127 16.3712 5.28964 16.5677 5.5274C16.7641 5.76515 16.8889 6.05391 16.9273 6.35993C16.9658 6.66595 16.9163 6.97659 16.7848 7.25555C16.6533 7.53452 16.445 7.77029 16.1845 7.93532C15.9239 8.10035 15.6218 8.18781 15.3134 8.1875C14.8301 8.18701 14.438 8.57836 14.4375 9.06161C14.437 9.4853 14.7378 9.83895 15.1376 9.92002C15.1893 9.9305 15.2425 9.93643 15.297 9.93737C15.3027 9.93747 15.3083 9.93751 15.314 9.93751Z" fill="black"/>
</mask>
<g mask="url(#mask0_359_8858)">
<path id="color" d="M20 0H0V20H20V0Z" fill="black"/>
</g>
</g>
</svg>
