<svg width="16" height="16" viewBox="0 0 16 16" fill="none" xmlns="http://www.w3.org/2000/svg">
<g id="Circle-Info-Filled">
<mask id="mask0_377_6582" style="mask-type:alpha" maskUnits="userSpaceOnUse" x="1" y="1" width="14" height="14">
<path id="icon" fill-rule="evenodd" clip-rule="evenodd" d="M8 1.125C4.20304 1.125 1.125 4.20304 1.125 8C1.125 11.797 4.20304 14.875 8 14.875C11.797 14.875 14.875 11.797 14.875 8C14.875 4.20304 11.797 1.125 8 1.125ZM7.83333 4.3584C7.35009 4.3584 6.95833 4.75015 6.95833 5.2334C6.95833 5.71665 7.35009 6.1084 7.83333 6.1084H7.84C8.32325 6.1084 8.715 5.71665 8.715 5.2334C8.715 4.75015 8.32325 4.3584 7.84 4.3584H7.83333ZM7.5 6.625C7.01675 6.625 6.625 7.01675 6.625 7.5C6.625 7.84905 6.82938 8.15036 7.125 8.2908V11C7.125 11.4832 7.51675 11.875 8 11.875H8.5C8.98325 11.875 9.375 11.4832 9.375 11C9.375 10.651 9.17062 10.3496 8.875 10.2092V7.5C8.875 7.01675 8.48325 6.625 8 6.625H7.5Z" fill="#0091DF"/>
</mask>
<g mask="url(#mask0_377_6582)">
<rect id="color" width="16" height="16" fill="black" fill-opacity="0.87"/>
</g>
</g>
</svg>
