<svg xmlns="http://www.w3.org/2000/svg" width="16" height="16" viewBox="0 0 16 16" fill="none">
  <mask id="mask0_657_14875" style="mask-type:alpha" maskUnits="userSpaceOnUse" x="2" y="2" width="12" height="12">
    <path fill-rule="evenodd" clip-rule="evenodd" d="M13.1187 4.11872C13.4604 3.77701 13.4604 3.22299 13.1187 2.88128C12.777 2.53957 12.223 2.53957 11.8813 2.88128L8 6.76256L4.11872 2.88128C3.77701 2.53957 3.22299 2.53957 2.88128 2.88128C2.53957 3.22299 2.53957 3.77701 2.88128 4.11872L6.76256 8L2.88128 11.8813C2.53957 12.223 2.53957 12.777 2.88128 13.1187C3.22299 13.4604 3.77701 13.4604 4.11872 13.1187L8 9.23744L11.8813 13.1187C12.223 13.4604 12.777 13.4604 13.1187 13.1187C13.4604 12.777 13.4604 12.223 13.1187 11.8813L9.23744 8L13.1187 4.11872Z" fill="#D30F4B"/>
  </mask>
  <g mask="url(#mask0_657_14875)">
    <path d="M16 0H0V16H16V0Z" fill="#D30F4B"/>
  </g>
</svg>